<svg width="59" height="58" viewBox="0 0 59 58" fill="none" xmlns="http://www.w3.org/2000/svg">
<g clip-path="url(#clip0_93_2801)">
<path d="M29.2705 5.22227C37.019 5.22227 37.9365 5.25625 40.9838 5.39219C43.8158 5.5168 45.3451 5.99258 46.3647 6.38906C47.7127 6.91016 48.6869 7.54453 49.6951 8.55273C50.7146 9.57227 51.3377 10.5352 51.8588 11.8832C52.2553 12.9027 52.7311 14.4434 52.8557 17.2641C52.9916 20.3227 53.0256 21.2402 53.0256 28.9773C53.0256 36.7258 52.9916 37.6434 52.8557 40.6906C52.7311 43.5227 52.2553 45.052 51.8588 46.0715C51.3377 47.4195 50.7033 48.3938 49.6951 49.402C48.6756 50.4215 47.7127 51.0445 46.3647 51.5656C45.3451 51.9621 43.8045 52.4379 40.9838 52.5625C37.9252 52.6984 37.0076 52.7324 29.2705 52.7324C21.5221 52.7324 20.6045 52.6984 17.5572 52.5625C14.7252 52.4379 13.1959 51.9621 12.1764 51.5656C10.8283 51.0445 9.8541 50.4102 8.8459 49.402C7.82637 48.3824 7.20332 47.4195 6.68223 46.0715C6.28574 45.052 5.80996 43.5113 5.68535 40.6906C5.54941 37.632 5.51543 36.7145 5.51543 28.9773C5.51543 21.2289 5.54941 20.3113 5.68535 17.2641C5.80996 14.432 6.28574 12.9027 6.68223 11.8832C7.20332 10.5352 7.8377 9.56094 8.8459 8.55273C9.86543 7.5332 10.8283 6.91016 12.1764 6.38906C13.1959 5.99258 14.7365 5.5168 17.5572 5.39219C20.6045 5.25625 21.5221 5.22227 29.2705 5.22227ZM29.2705 0C21.3975 0 20.4119 0.0339844 17.3193 0.169922C14.2381 0.305859 12.1197 0.804297 10.2846 1.51797C8.37012 2.26562 6.7502 3.25117 5.1416 4.87109C3.52168 6.47969 2.53613 8.09961 1.78848 10.0027C1.0748 11.8492 0.576367 13.9562 0.44043 17.0375C0.304492 20.1414 0.270508 21.127 0.270508 29C0.270508 36.873 0.304492 37.8586 0.44043 40.9512C0.576367 44.0324 1.0748 46.1508 1.78848 47.9859C2.53613 49.9004 3.52168 51.5203 5.1416 53.1289C6.7502 54.7375 8.37012 55.7344 10.2732 56.4707C12.1197 57.1844 14.2268 57.6828 17.308 57.8187C20.4006 57.9547 21.3861 57.9887 29.2592 57.9887C37.1322 57.9887 38.1178 57.9547 41.2104 57.8187C44.2916 57.6828 46.41 57.1844 48.2451 56.4707C50.1482 55.7344 51.7682 54.7375 53.3768 53.1289C54.9854 51.5203 55.9822 49.9004 56.7186 47.9973C57.4322 46.1508 57.9307 44.0438 58.0666 40.9625C58.2025 37.8699 58.2365 36.8844 58.2365 29.0113C58.2365 21.1383 58.2025 20.1527 58.0666 17.0602C57.9307 13.9789 57.4322 11.8605 56.7186 10.0254C56.0049 8.09961 55.0193 6.47969 53.3994 4.87109C51.7908 3.2625 50.1709 2.26562 48.2678 1.5293C46.4213 0.815625 44.3143 0.317188 41.233 0.18125C38.1291 0.0339844 37.1436 0 29.2705 0Z" fill="white"/>
<path d="M29.2705 14.1035C21.0463 14.1035 14.374 20.7758 14.374 29C14.374 37.2242 21.0463 43.8965 29.2705 43.8965C37.4947 43.8965 44.167 37.2242 44.167 29C44.167 20.7758 37.4947 14.1035 29.2705 14.1035ZM29.2705 38.6629C23.935 38.6629 19.6076 34.3355 19.6076 29C19.6076 23.6645 23.935 19.3371 29.2705 19.3371C34.6061 19.3371 38.9334 23.6645 38.9334 29C38.9334 34.3355 34.6061 38.6629 29.2705 38.6629Z" fill="white"/>
<path d="M48.2338 13.5144C48.2338 15.4401 46.6705 16.9921 44.7561 16.9921C42.8303 16.9921 41.2783 15.4288 41.2783 13.5144C41.2783 11.5886 42.8416 10.0366 44.7561 10.0366C46.6705 10.0366 48.2338 11.5999 48.2338 13.5144Z" fill="white"/>
</g>
<defs>
<clipPath id="clip0_93_2801">
<rect width="58" height="58" fill="white" transform="translate(0.270508)"/>
</clipPath>
</defs>
</svg>
