<svg width="59" height="58" viewBox="0 0 59 58" fill="none" xmlns="http://www.w3.org/2000/svg">
    <path fill-rule="evenodd" clip-rule="evenodd"
          d="M58.6035 29C58.6035 45.0163 45.6198 58 29.6035 58C13.5873 58 0.603516 45.0163 0.603516 29C0.603516 12.9837 13.5873 0 29.6035 0C45.6198 0 58.6035 12.9837 58.6035 29ZM30.6427 21.4091C27.8221 22.5823 22.1847 25.0106 13.7306 28.6939C12.3578 29.2398 11.6386 29.7739 11.5732 30.2961C11.4625 31.1786 12.5677 31.5261 14.0727 31.9994C14.2775 32.0638 14.4896 32.1304 14.707 32.2011C16.1877 32.6824 18.1795 33.2455 19.215 33.2679C20.1542 33.2882 21.2025 32.901 22.3599 32.1062C30.2588 26.7743 34.3363 24.0792 34.5923 24.0211C34.7729 23.9801 35.0231 23.9286 35.1927 24.0793C35.3623 24.23 35.3456 24.5154 35.3276 24.592C35.2182 25.0588 30.8798 29.0921 28.6347 31.1793C27.9348 31.83 27.4384 32.2915 27.3369 32.397C27.1095 32.6331 26.8778 32.8564 26.6551 33.0711C25.2795 34.3972 24.248 35.3917 26.7122 37.0156C27.8965 37.796 28.8441 38.4413 29.7895 39.0851C30.8219 39.7882 31.8517 40.4895 33.1841 41.3629C33.5235 41.5854 33.8477 41.8165 34.1635 42.0416C35.365 42.8982 36.4445 43.6678 37.7781 43.545C38.553 43.4737 39.3535 42.7451 39.76 40.5719C40.7207 35.4359 42.6091 24.3079 43.0455 19.7224C43.0838 19.3206 43.0357 18.8064 42.9971 18.5807C42.9584 18.355 42.8777 18.0334 42.5843 17.7954C42.2369 17.5134 41.7005 17.454 41.4606 17.4582C40.3698 17.4774 38.6964 18.0593 30.6427 21.4091Z"
          fill="white"/>
</svg>
