<svg width="59" height="42" viewBox="0 0 59 42" fill="none" xmlns="http://www.w3.org/2000/svg">
<path d="M58.3588 9.4001C58.3588 9.4001 57.7924 5.40127 56.0479 3.64541C53.8389 1.33447 51.3693 1.32314 50.2365 1.18721C42.1256 0.598144 29.9479 0.598145 29.9479 0.598145H29.9252C29.9252 0.598145 17.7475 0.598144 9.63652 1.18721C8.50371 1.32314 6.03418 1.33447 3.8252 3.64541C2.08066 5.40127 1.52559 9.4001 1.52559 9.4001C1.52559 9.4001 0.936523 14.1013 0.936523 18.7911V23.1864C0.936523 27.8763 1.51426 32.5774 1.51426 32.5774C1.51426 32.5774 2.08066 36.5763 3.81387 38.3321C6.02285 40.6431 8.92285 40.5638 10.2143 40.813C14.8588 41.2548 29.9365 41.3907 29.9365 41.3907C29.9365 41.3907 42.1256 41.3681 50.2365 40.7903C51.3693 40.6544 53.8389 40.6431 56.0479 38.3321C57.7924 36.5763 58.3588 32.5774 58.3588 32.5774C58.3588 32.5774 58.9365 27.8876 58.9365 23.1864V18.7911C58.9365 14.1013 58.3588 9.4001 58.3588 9.4001ZM23.9439 28.522V12.2208L39.6107 20.3997L23.9439 28.522Z" fill="white"/>
</svg>
